# xmcd CD database file
# Copyright (C) 1993-1997  Ti Kan
#
# Track frame offsets:
#	182
#	20230
#	41520
#	59737
#	81697
#	98767
#	115770
#	134940
#	152345
#	174595
#	191505
#
# Disc length: 2893 seconds
#
# Revision: 2
# Processed by: cddbd v1.4b41PL1 Copyright (c) Steve Scherf et al.
# Submitted via: xmcd 2.2 PL0
#
DISCID=9d0b4b0b
DTITLE=LISA TAYLOR/ secrets of the heart
DYEAR=1900
DGENRE=
TTITLE0=FALLEN ANGEL
TTITLE1=SECRETS OF THE HEART
TTITLE2=BETTER LATE THAN NEVER
TTITLE3=ONCE AGAIN LOVE
TTITLE4=TO KNOW YOUR LOVE
TTITLE5=MAKE YOU MINE
TTITLE6=PART OF MY HEART
TTITLE7=YOU COULD'VE BEEN WITH ME
TTITLE8=I CAN'T REMEMBER WHEN
TTITLE9=I WANNA FALL IN LOVE AGAIN
TTITLE10=DID YOU PRAY TODAY?
EXTD=
EXTT0=
EXTT1=
EXTT2=
EXTT3=
EXTT4=
EXTT5=
EXTT6=
EXTT7=
EXTT8=
EXTT9=
EXTT10=
PLAYORDER=
